<mxfile host="app.diagrams.net" modified="2022-03-15T03:21:37.643Z" agent="5.0 (Macintosh; Intel Mac OS X 10_15_7) AppleWebKit/537.36 (KHTML, like Gecko) Chrome/99.0.4844.51 Safari/537.36" etag="ydOjw8YqJU4uMrDjzUU3" version="17.1.2" type="github">
  <diagram id="kgpKYQtTHZ0yAKxKKP6v" name="Page-1">
    <mxGraphModel dx="1932" dy="679" grid="1" gridSize="10" guides="1" tooltips="1" connect="1" arrows="1" fold="1" page="1" pageScale="1" pageWidth="850" pageHeight="1100" math="0" shadow="0">
      <root>
        <mxCell id="0" />
        <mxCell id="1" parent="0" />
        <mxCell id="3nuBFxr9cyL0pnOWT2aG-1" value="MeetingScheduleViewModel" style="shape=umlLifeline;perimeter=lifelinePerimeter;container=1;collapsible=0;recursiveResize=0;rounded=0;shadow=0;strokeWidth=1;" parent="1" vertex="1">
          <mxGeometry x="210" y="70" width="170" height="590" as="geometry" />
        </mxCell>
        <mxCell id="TrbpMphKD7TbdpJShQMu-24" value="" style="html=1;points=[];perimeter=orthogonalPerimeter;" vertex="1" parent="3nuBFxr9cyL0pnOWT2aG-1">
          <mxGeometry x="80" y="150" width="10" height="260" as="geometry" />
        </mxCell>
        <mxCell id="3nuBFxr9cyL0pnOWT2aG-5" value="CalendarService" style="shape=umlLifeline;perimeter=lifelinePerimeter;container=1;collapsible=0;recursiveResize=0;rounded=0;shadow=0;strokeWidth=1;" parent="1" vertex="1">
          <mxGeometry x="900" y="70" width="100" height="590" as="geometry" />
        </mxCell>
        <mxCell id="TrbpMphKD7TbdpJShQMu-1" value="CalendarAdapter" style="shape=umlLifeline;perimeter=lifelinePerimeter;container=1;collapsible=0;recursiveResize=0;rounded=0;shadow=0;strokeWidth=1;" vertex="1" parent="1">
          <mxGeometry x="1080" y="70" width="100" height="590" as="geometry" />
        </mxCell>
        <mxCell id="TrbpMphKD7TbdpJShQMu-3" value="MeetingSchedulingFooterViewController" style="shape=umlLifeline;perimeter=lifelinePerimeter;container=1;collapsible=0;recursiveResize=0;rounded=0;shadow=0;strokeWidth=1;" vertex="1" parent="1">
          <mxGeometry x="-100" y="70" width="230" height="590" as="geometry" />
        </mxCell>
        <mxCell id="TrbpMphKD7TbdpJShQMu-17" value="" style="html=1;points=[];perimeter=orthogonalPerimeter;" vertex="1" parent="TrbpMphKD7TbdpJShQMu-3">
          <mxGeometry x="110" y="110" width="10" height="60" as="geometry" />
        </mxCell>
        <mxCell id="TrbpMphKD7TbdpJShQMu-18" value="" style="html=1;verticalAlign=bottom;startArrow=oval;endArrow=block;startSize=8;rounded=0;" edge="1" target="TrbpMphKD7TbdpJShQMu-17" parent="TrbpMphKD7TbdpJShQMu-3">
          <mxGeometry relative="1" as="geometry">
            <mxPoint x="-60" y="110" as="sourcePoint" />
          </mxGeometry>
        </mxCell>
        <mxCell id="TrbpMphKD7TbdpJShQMu-5" value="WebexMeetingService" style="shape=umlLifeline;perimeter=lifelinePerimeter;container=1;collapsible=0;recursiveResize=0;rounded=0;shadow=0;strokeWidth=1;" vertex="1" parent="1">
          <mxGeometry x="460" y="70" width="170" height="590" as="geometry" />
        </mxCell>
        <mxCell id="TrbpMphKD7TbdpJShQMu-26" value="" style="html=1;points=[];perimeter=orthogonalPerimeter;" vertex="1" parent="TrbpMphKD7TbdpJShQMu-5">
          <mxGeometry x="80" y="180" width="10" height="40" as="geometry" />
        </mxCell>
        <mxCell id="TrbpMphKD7TbdpJShQMu-7" value="WebexMeetingApiAdapter" style="shape=umlLifeline;perimeter=lifelinePerimeter;container=1;collapsible=0;recursiveResize=0;rounded=0;shadow=0;strokeWidth=1;" vertex="1" parent="1">
          <mxGeometry x="680" y="70" width="170" height="590" as="geometry" />
        </mxCell>
        <mxCell id="TrbpMphKD7TbdpJShQMu-29" value="" style="html=1;points=[];perimeter=orthogonalPerimeter;" vertex="1" parent="TrbpMphKD7TbdpJShQMu-7">
          <mxGeometry x="80" y="180" width="10" height="40" as="geometry" />
        </mxCell>
        <mxCell id="TrbpMphKD7TbdpJShQMu-14" value="&lt;span style=&quot;color: rgba(0 , 0 , 0 , 0) ; font-family: monospace ; font-size: 0px&quot;&gt;%3CmxGraphModel%3E%3Croot%3E%3CmxCell%20id%3D%220%22%2F%3E%3CmxCell%20id%3D%221%22%20parent%3D%220%22%2F%3E%3CmxCell%20id%3D%222%22%20value%3D%22ValidateMeetingPassword%22%20style%3D%22text%3Bhtml%3D1%3Balign%3Dcenter%3BverticalAlign%3Dmiddle%3Bresizable%3D0%3Bpoints%3D%5B%5D%3Bautosize%3D1%3BstrokeColor%3Dnone%3BfillColor%3Dnone%3B%22%20vertex%3D%221%22%20parent%3D%221%22%3E%3CmxGeometry%20x%3D%22340%22%20y%3D%22190%22%20width%3D%22150%22%20height%3D%2220%22%20as%3D%22geometry%22%2F%3E%3C%2FmxCell%3E%3C%2Froot%3E%3C%2FmxGraphModel%3E&lt;/span&gt;" style="text;html=1;align=center;verticalAlign=middle;resizable=0;points=[];autosize=1;strokeColor=none;fillColor=none;" vertex="1" parent="1">
          <mxGeometry x="110" y="190" width="20" height="20" as="geometry" />
        </mxCell>
        <mxCell id="TrbpMphKD7TbdpJShQMu-15" value="scheduleMeeting" style="text;html=1;align=center;verticalAlign=middle;resizable=0;points=[];autosize=1;strokeColor=none;fillColor=none;" vertex="1" parent="1">
          <mxGeometry x="110" y="198" width="110" height="20" as="geometry" />
        </mxCell>
        <mxCell id="TrbpMphKD7TbdpJShQMu-20" value="Actor" style="shape=umlActor;verticalLabelPosition=bottom;verticalAlign=top;html=1;" vertex="1" parent="1">
          <mxGeometry x="-200" y="160" width="30" height="60" as="geometry" />
        </mxCell>
        <mxCell id="TrbpMphKD7TbdpJShQMu-22" value="onScheduleButtonClicked" style="text;html=1;align=center;verticalAlign=middle;resizable=0;points=[];autosize=1;strokeColor=none;fillColor=none;" vertex="1" parent="1">
          <mxGeometry x="-155" y="157" width="150" height="20" as="geometry" />
        </mxCell>
        <mxCell id="TrbpMphKD7TbdpJShQMu-25" value="" style="html=1;verticalAlign=bottom;startArrow=oval;endArrow=block;startSize=8;rounded=0;exitX=1.1;exitY=0.65;exitDx=0;exitDy=0;exitPerimeter=0;" edge="1" target="TrbpMphKD7TbdpJShQMu-24" parent="1" source="TrbpMphKD7TbdpJShQMu-17">
          <mxGeometry relative="1" as="geometry">
            <mxPoint x="230" y="220" as="sourcePoint" />
          </mxGeometry>
        </mxCell>
        <mxCell id="TrbpMphKD7TbdpJShQMu-27" value="&lt;span style=&quot;font-size: 12px ; background-color: rgb(248 , 249 , 250)&quot;&gt;ValidateMeetingPassword&lt;/span&gt;" style="html=1;verticalAlign=bottom;endArrow=block;entryX=0;entryY=0;rounded=0;" edge="1" target="TrbpMphKD7TbdpJShQMu-26" parent="1" source="3nuBFxr9cyL0pnOWT2aG-1">
          <mxGeometry relative="1" as="geometry">
            <mxPoint x="470" y="250" as="sourcePoint" />
          </mxGeometry>
        </mxCell>
        <mxCell id="TrbpMphKD7TbdpJShQMu-28" value="return" style="html=1;verticalAlign=bottom;endArrow=open;dashed=1;endSize=8;exitX=0;exitY=0.95;rounded=0;" edge="1" source="TrbpMphKD7TbdpJShQMu-26" parent="1" target="3nuBFxr9cyL0pnOWT2aG-1">
          <mxGeometry relative="1" as="geometry">
            <mxPoint x="470" y="326" as="targetPoint" />
          </mxGeometry>
        </mxCell>
        <mxCell id="TrbpMphKD7TbdpJShQMu-30" value="&lt;span style=&quot;font-size: 12px ; background-color: rgb(248 , 249 , 250)&quot;&gt;ValidateMeetingPassword&lt;/span&gt;" style="html=1;verticalAlign=bottom;endArrow=block;entryX=0;entryY=0;rounded=0;" edge="1" target="TrbpMphKD7TbdpJShQMu-29" parent="1" source="TrbpMphKD7TbdpJShQMu-5">
          <mxGeometry relative="1" as="geometry">
            <mxPoint x="580" y="290" as="sourcePoint" />
          </mxGeometry>
        </mxCell>
        <mxCell id="TrbpMphKD7TbdpJShQMu-31" value="return" style="html=1;verticalAlign=bottom;endArrow=open;dashed=1;endSize=8;exitX=0;exitY=0.95;rounded=0;" edge="1" source="TrbpMphKD7TbdpJShQMu-29" parent="1">
          <mxGeometry relative="1" as="geometry">
            <mxPoint x="550" y="288" as="targetPoint" />
          </mxGeometry>
        </mxCell>
      </root>
    </mxGraphModel>
  </diagram>
</mxfile>
